<svg width="670" height="101" viewBox="0 0 670 101" fill="none" xmlns="http://www.w3.org/2000/svg">
<g clip-path="url(#clip0_22_256)">
<path d="M184.813 77.6731C176.092 77.6731 169.631 72.9017 166.504 66.2799V76.4776H158.536V0.540527H166.504V31.352C169.951 25.2812 176.412 21.1543 184.71 21.1543C198.715 21.1543 209.376 32.9736 209.376 49.3565C209.479 66.2799 198.498 77.6731 184.823 77.6731H184.813ZM201.398 49.3565C201.398 37.4228 193.967 28.8571 183.729 28.8571C172.851 28.8571 165.957 37.3188 165.957 49.3565C165.957 61.3942 173.708 69.9702 183.729 69.9702C193.751 69.9702 201.398 61.2902 201.398 49.3565Z" fill="black"/>
<path d="M217.767 5.42631C217.767 2.3909 220.244 0 223.371 0C226.281 0 228.758 2.3909 228.758 5.42631C228.758 8.46171 226.281 10.9566 223.371 10.9566C220.244 10.9566 217.767 8.56566 217.767 5.42631ZM227.355 22.2354V76.4777H219.387V22.2354H227.355Z" fill="black"/>
<path d="M233.712 49.3565C233.712 33.7325 246.211 21.1543 261.826 21.1543C277.441 21.1543 289.723 33.7325 289.723 49.3565C289.723 64.9806 277.235 77.5588 261.826 77.5588C246.417 77.5588 233.712 64.9702 233.712 49.3565ZM281.642 49.3565C281.642 37.8594 272.807 28.8572 261.826 28.8572C250.845 28.8572 241.68 37.7555 241.68 49.3565C241.68 60.9576 250.618 69.8559 261.826 69.8559C273.034 69.8559 281.642 60.8537 281.642 49.3565Z" fill="black"/>
<path d="M313.192 77.8914C301.994 77.8914 294.027 71.8206 292.293 63.2446L299.507 60.968C300.797 66.7166 305.968 70.5108 313.079 70.5108C319.436 70.5108 325.464 67.4754 325.464 62.2674C325.464 56.4149 317.816 54.6685 312.109 53.0469C304.461 50.8743 294.656 47.5166 294.656 37.1006C294.656 27.2251 303.377 21.0504 313.719 21.0504C324.06 21.0504 331.274 27.1212 332.894 35.6972L325.897 37.8698C324.824 32.2252 319.973 28.431 313.832 28.431C308.021 28.431 302.634 31.6847 302.634 36.6744C302.634 41.0092 306.938 43.4001 314.369 45.4583C320.943 47.2983 333.431 50.3441 333.431 61.7269C333.431 71.6023 324.38 77.8914 313.182 77.8914H313.192Z" fill="black"/>
<path d="M388.905 64.6583C383.734 72.4651 375.013 77.5692 365.209 77.5692C349.593 77.5692 338.179 64.9805 338.179 49.2526C338.179 33.5246 349.593 20.936 365.209 20.936C375.013 20.936 383.734 26.0296 388.905 33.8468L382.228 37.8594C378.347 31.9965 372.103 28.6388 365.322 28.6388C354.341 28.6388 346.26 37.6411 346.26 49.2526C346.26 60.864 354.341 69.8663 365.322 69.8663C372.103 69.8663 378.357 66.3943 382.228 60.6457L388.905 64.6583Z" fill="black"/>
<path d="M395.686 5.42631C395.686 2.3909 398.163 0 401.29 0C404.2 0 406.677 2.3909 406.677 5.42631C406.677 8.46171 404.2 10.9566 401.29 10.9566C398.163 10.9566 395.686 8.56566 395.686 5.42631ZM405.274 22.2354V76.4777H397.306V22.2354H405.274Z" fill="black"/>
<path d="M461.821 53.0468H419.929C421.219 63.3485 427.68 69.8663 437.381 69.8663C444.596 69.8663 450.953 66.2903 454.184 60.7497L460.861 64.6583C456.227 72.4651 447.186 77.5692 437.381 77.5692C421.766 77.5692 411.642 64.9805 411.642 49.3669C411.642 33.7533 421.983 21.1647 437.381 21.1647C449.23 21.1647 460.211 28.5453 461.831 44.7099C462.151 47.3087 462.151 50.1362 461.831 53.0676L461.821 53.0468ZM419.929 45.6662H453.853C453.75 35.0319 446.206 28.8571 437.154 28.8571C427.463 28.8571 421.106 35.5828 419.919 45.6662H419.929Z" fill="black"/>
<path d="M516.201 44.4812V76.4777H508.233V45.8845C508.233 35.2502 501.556 28.6389 493.258 28.6389C483.783 28.6389 477.323 36.9966 477.323 46.2172V76.4881H469.355V22.2354H477.323V31.352C480.656 25.6035 487.23 21.0504 495.198 21.0504C506.829 21.0504 516.201 30.4892 516.201 44.4812Z" fill="black"/>
<path d="M572.098 64.6583C566.927 72.4651 558.206 77.5692 548.401 77.5692C532.786 77.5692 521.371 64.9805 521.371 49.2526C521.371 33.5246 532.786 20.936 548.401 20.936C558.206 20.936 566.927 26.0296 572.098 33.8468L565.42 37.8594C561.54 31.9965 555.295 28.6388 548.515 28.6388C537.534 28.6388 529.452 37.6411 529.452 49.2526C529.452 60.864 537.534 69.8663 548.515 69.8663C555.295 69.8663 561.55 66.3943 565.42 60.6457L572.098 64.6583Z" fill="black"/>
<path d="M625.084 53.0468H583.192C584.482 63.3485 590.943 69.8663 600.645 69.8663C607.859 69.8663 614.216 66.2903 617.447 60.7497L624.124 64.6583C619.49 72.4651 610.449 77.5692 600.645 77.5692C585.029 77.5692 574.905 64.9805 574.905 49.3669C574.905 33.7533 585.246 21.1647 600.645 21.1647C612.493 21.1647 623.474 28.5453 625.094 44.7099C625.414 47.3087 625.414 50.1362 625.094 53.0676L625.084 53.0468ZM583.192 45.6662H617.117C617.013 35.0319 609.469 28.8571 600.418 28.8571C590.726 28.8571 584.369 35.5828 583.182 45.6662H583.192Z" fill="black"/>
<path d="M649.751 77.8914C638.553 77.8914 630.575 71.8206 628.851 63.2446L636.065 60.968C637.356 66.7166 642.526 70.5108 649.637 70.5108C655.995 70.5108 662.022 67.4754 662.022 62.2674C662.022 56.4149 654.374 54.6685 648.667 53.0469C641.019 50.8743 631.215 47.5166 631.215 37.1006C631.215 27.2251 639.936 21.0504 650.277 21.0504C660.618 21.0504 667.833 27.1212 669.443 35.6972L662.445 37.8698C661.372 32.2252 656.521 28.431 650.38 28.431C644.559 28.431 639.182 31.6847 639.182 36.6744C639.182 41.0092 643.496 43.4001 650.917 45.4583C657.491 47.2983 669.979 50.3441 669.979 61.7269C669.979 71.6023 660.928 77.8914 649.73 77.8914H649.751Z" fill="black"/>
<path d="M15.4914 75.9163H0V0H15.4914V75.9163Z" fill="black"/>
<path d="M35.9264 16.6427C34.1306 18.4515 31.9633 19.3455 29.4244 19.3455C26.8855 19.3455 24.6769 18.4411 22.8191 16.6427C21.0233 14.7716 20.1357 12.5574 20.1357 9.9898C20.1357 7.42218 21.0336 5.23918 22.8191 3.4408C24.6769 1.56966 26.8752 0.634094 29.4244 0.634094C31.9736 0.634094 34.1409 1.56966 35.9264 3.4408C37.7842 5.24957 38.713 7.43257 38.713 9.9898C38.713 12.547 37.7842 14.7716 35.9264 16.6427ZM37.1649 75.9163H21.6735V23.9194H37.1649V75.9163Z" fill="black"/>
<path d="M129.525 26.7989C119.462 25.4267 110.473 30.614 106.118 38.7118C105.065 40.6661 103.052 41.9032 100.833 41.9032H98.181C95.8279 41.9032 93.7121 40.5102 92.7316 38.3584C88.3969 28.878 78.8193 22.329 67.7349 22.4953C53.6781 22.7136 41.8918 34.1275 41.159 48.2546C40.3334 63.9722 52.7492 76.9663 68.1684 76.9663C72.5134 76.9663 76.6004 75.9059 80.2436 74.0764V74.4714C80.2436 82.8915 75.1864 87.6837 67.8484 87.6837C62.4816 87.6837 58.0437 85.0849 54.318 80.7189L44.2037 89.7628C50.0865 96.7276 58.4566 101 67.9516 101C82.8238 101 95.2086 90.3865 95.2086 74.6897V64.2945C95.2086 60.9576 97.892 58.2549 101.205 58.2549C103.341 58.2549 105.323 59.4087 106.386 61.2695C110.349 68.2135 117.78 72.8913 126.305 72.8913C139.866 72.8913 150.693 61.0616 149.145 47.08C147.999 36.6952 139.804 28.2023 129.525 26.7989ZM70.2738 62.1323C61.7489 63.5564 54.4418 56.1966 55.8454 47.5998C56.702 42.3917 60.8716 38.1921 66.032 37.3397C74.5569 35.9155 81.8639 43.2753 80.4603 51.8722C79.6037 57.0802 75.4341 61.2799 70.2738 62.1323Z" fill="black"/>
</g>
<defs>
<clipPath id="clip0_22_256">
<rect width="670" height="101" fill="white"/>
</clipPath>
</defs>
</svg>
